<svg width="88" height="88" xmlns="http://www.w3.org/2000/svg">

 <g>
  <title>background</title>
  <rect fill="none" id="canvas_background" height="90" width="90" y="-1" x="-1"/>
 </g>
 <g>
  <title>Layer 1</title>
  <path id="svg_1" d="m68.940168,19.136467l0,25.544c0,0.24 0.022,0.561 0.07,0.789c0.047,0.227 0.114,0.445 0.202,0.654s0.196,0.408 0.322,0.594c0.127,0.186 0.269,0.359 0.427,0.516c0.315,0.316 0.691,0.572 1.111,0.748c0.417,0.178 0.877,0.275 1.358,0.275c0.48,0 0.94,-0.098 1.359,-0.275c0.417,-0.176 0.794,-0.432 1.109,-0.748c1.546,-1.578 2.574,-2.553 4.957,-2.553c4.702,0 7.389,3.811 7.389,8.514s-2.687,8.516 -7.389,8.516c-2.383,0 -3.411,-0.979 -4.957,-2.555c-0.315,-0.316 -0.692,-0.572 -1.109,-0.748c-0.419,-0.178 -0.879,-0.275 -1.359,-0.275c-0.481,0 -0.941,0.098 -1.358,0.275c-0.42,0.176 -0.796,0.432 -1.111,0.748c-0.158,0.158 -0.3,0.332 -0.427,0.516c-0.126,0.186 -0.234,0.385 -0.322,0.594s-0.155,0.428 -0.202,0.656c-0.048,0.227 -0.07,0.547 -0.07,0.789l0,0.895l0,24.646l-25.545,0c-0.241,0 -0.56,-0.023 -0.788,-0.07c-0.227,-0.047 -0.446,-0.115 -0.655,-0.203c-0.21,-0.088 -0.408,-0.195 -0.593,-0.322c-0.188,-0.125 -0.359,-0.268 -0.518,-0.426c-0.316,-0.316 -0.571,-0.691 -0.748,-1.111c-0.177,-0.416 -0.274,-0.875 -0.274,-1.357s0.098,-0.941 0.274,-1.359s0.432,-0.795 0.748,-1.109c1.577,-1.545 2.554,-2.572 2.554,-4.959c0,-4.699 -3.812,-7.389 -8.515,-7.389c-4.702,0 -8.514,2.689 -8.514,7.389c0,2.387 0.979,3.414 2.554,4.959c0.316,0.314 0.572,0.691 0.748,1.109c0.178,0.418 0.275,0.877 0.275,1.359s-0.098,0.941 -0.275,1.357c-0.176,0.42 -0.432,0.795 -0.748,1.111c-0.158,0.158 -0.331,0.301 -0.517,0.426c-0.186,0.127 -0.384,0.234 -0.593,0.322s-0.428,0.156 -0.655,0.203s-0.548,0.07 -0.789,0.07l-25.543,0l0,-24.647l0,-0.895c0,-0.242 0.024,-0.562 0.071,-0.789c0.046,-0.229 0.115,-0.447 0.203,-0.656s0.196,-0.408 0.322,-0.594c0.126,-0.184 0.269,-0.357 0.427,-0.516c0.315,-0.316 0.691,-0.572 1.109,-0.748c0.418,-0.178 0.877,-0.275 1.359,-0.275s0.941,0.098 1.359,0.275c0.417,0.176 0.794,0.432 1.11,0.748c1.545,1.576 2.573,2.555 4.955,2.555c4.703,0 7.391,-3.812 7.391,-8.516s-2.688,-8.514 -7.391,-8.514c-2.382,0 -3.41,0.975 -4.955,2.553c-0.316,0.316 -0.693,0.572 -1.11,0.748c-0.418,0.178 -0.877,0.275 -1.359,0.275s-0.941,-0.098 -1.359,-0.275c-0.418,-0.176 -0.794,-0.432 -1.109,-0.748c-0.158,-0.156 -0.301,-0.33 -0.427,-0.516s-0.234,-0.385 -0.322,-0.594s-0.157,-0.428 -0.203,-0.654c-0.047,-0.229 -0.071,-0.549 -0.071,-0.789l0,-25.543l25.544,0c0.241,0 0.562,-0.024 0.789,-0.071c0.228,-0.046 0.446,-0.115 0.655,-0.203c0.209,-0.089 0.407,-0.197 0.593,-0.322s0.358,-0.268 0.517,-0.426c0.316,-0.317 0.572,-0.691 0.748,-1.11c0.178,-0.418 0.275,-0.877 0.275,-1.359s-0.098,-0.94 -0.275,-1.358c-0.176,-0.419 -0.432,-0.795 -0.748,-1.11c-1.575,-1.546 -2.554,-2.575 -2.554,-4.956c0,-4.702 3.812,-7.39 8.514,-7.39c4.703,0 8.515,2.688 8.515,7.39c0,2.381 -0.977,3.41 -2.554,4.956c-0.316,0.315 -0.571,0.691 -0.748,1.11c-0.177,0.418 -0.274,0.876 -0.274,1.358s0.098,0.941 0.274,1.359c0.177,0.419 0.432,0.793 0.748,1.11c0.158,0.158 0.33,0.301 0.518,0.426c0.185,0.125 0.383,0.233 0.593,0.322c0.209,0.088 0.429,0.157 0.655,0.203c0.229,0.047 0.547,0.071 0.788,0.071l25.544,0l0,0z" fill="#8c9091"/>
 </g>
</svg>